<svg xmlns="http://www.w3.org/2000/svg" xmlns:xlink="http://www.w3.org/1999/xlink" width="500" zoomAndPan="magnify" viewBox="0 0 375 374.999991" height="500" preserveAspectRatio="xMidYMid meet" version="1.0"><defs><clipPath id="0a4cd395a3"><path d="M 187.5 0 C 83.945312 0 0 83.945312 0 187.5 C 0 291.054688 83.945312 375 187.5 375 C 291.054688 375 375 291.054688 375 187.5 C 375 83.945312 291.054688 0 187.5 0 Z M 187.5 0 " clip-rule="nonzero"/></clipPath><clipPath id="6e96df4799"><path d="M 0 0 L 375 0 L 375 375 L 0 375 Z M 0 0 " clip-rule="nonzero"/></clipPath><clipPath id="94653ba215"><path d="M 187.5 0 C 83.945312 0 0 83.945312 0 187.5 C 0 291.054688 83.945312 375 187.5 375 C 291.054688 375 375 291.054688 375 187.5 C 375 83.945312 291.054688 0 187.5 0 Z M 187.5 0 " clip-rule="nonzero"/></clipPath><clipPath id="fc943ea31e"><rect x="0" width="375" y="0" height="375"/></clipPath><clipPath id="a1e9f83e32"><path d="M 58.582031 84 L 256.582031 84 L 256.582031 299.804688 L 58.582031 299.804688 Z M 58.582031 84 " clip-rule="nonzero"/></clipPath><clipPath id="873272c0b4"><path d="M 211.152344 184.652344 L 316.152344 184.652344 L 316.152344 300 L 211.152344 300 Z M 211.152344 184.652344 " clip-rule="nonzero"/></clipPath></defs><g clip-path="url(#0a4cd395a3)"><g transform="matrix(1, 0, 0, 1, 0, 0)"><g clip-path="url(#fc943ea31e)"><g clip-path="url(#6e96df4799)"><g clip-path="url(#94653ba215)"><rect x="-82.5" width="540" fill="#f5f5f7" height="539.999987" y="-82.499998" fill-opacity="1"/></g></g></g></g></g><g clip-path="url(#a1e9f83e32)"><path fill="#1a1a1c" d="M 157.53125 299.742188 L 256.582031 84.226562 L 58.476562 84.226562 Z M 162.945312 260.808594 L 86.042969 93.484375 L 239.851562 93.484375 Z M 162.945312 260.808594 " fill-opacity="1" fill-rule="nonzero"/></g><g clip-path="url(#873272c0b4)"><path fill="#1a1a1c" d="M 303.898438 266.039062 C 296.253906 277.277344 283.363281 284.671875 268.777344 284.671875 C 245.371094 284.671875 226.332031 265.628906 226.332031 242.222656 C 226.332031 218.820312 245.371094 199.777344 268.777344 199.777344 C 283.394531 199.777344 296.3125 207.207031 303.949219 218.488281 L 316.457031 210 C 306.097656 194.71875 288.589844 184.65625 268.777344 184.65625 C 237.035156 184.65625 211.210938 210.480469 211.210938 242.226562 C 211.210938 273.96875 237.035156 299.792969 268.777344 299.792969 C 288.574219 299.792969 306.066406 289.746094 316.429688 274.488281 Z M 303.898438 266.039062 " fill-opacity="1" fill-rule="nonzero"/></g></svg>