<svg xmlns="http://www.w3.org/2000/svg" xmlns:xlink="http://www.w3.org/1999/xlink" width="500" zoomAndPan="magnify" viewBox="0 0 375 374.999991" height="500" preserveAspectRatio="xMidYMid meet" version="1.0"><defs><clipPath id="77c659f436"><path d="M 187.5 0 C 83.945312 0 0 83.945312 0 187.5 C 0 291.054688 83.945312 375 187.5 375 C 291.054688 375 375 291.054688 375 187.5 C 375 83.945312 291.054688 0 187.5 0 Z M 187.5 0 " clip-rule="nonzero"/></clipPath><clipPath id="844b630c0d"><path d="M 0 0 L 375 0 L 375 375 L 0 375 Z M 0 0 " clip-rule="nonzero"/></clipPath><clipPath id="5ede9b80ee"><path d="M 187.5 0 C 83.945312 0 0 83.945312 0 187.5 C 0 291.054688 83.945312 375 187.5 375 C 291.054688 375 375 291.054688 375 187.5 C 375 83.945312 291.054688 0 187.5 0 Z M 187.5 0 " clip-rule="nonzero"/></clipPath><clipPath id="999cb65299"><rect x="0" width="375" y="0" height="375"/></clipPath><clipPath id="64a8fd4b43"><path d="M 53.609375 69 L 271.109375 69 L 271.109375 305.921875 L 53.609375 305.921875 Z M 53.609375 69 " clip-rule="nonzero"/></clipPath><clipPath id="a2297527e4"><path d="M 213.425781 187.5 L 303.425781 187.5 L 303.425781 300.75 L 213.425781 300.75 Z M 213.425781 187.5 " clip-rule="nonzero"/></clipPath></defs><g clip-path="url(#77c659f436)"><g transform="matrix(1, 0, 0, 1, 0, 0)"><g clip-path="url(#999cb65299)"><g clip-path="url(#844b630c0d)"><g clip-path="url(#5ede9b80ee)"><rect x="-82.5" width="540" fill="#000000" height="539.999987" y="-82.499998" fill-opacity="1"/></g></g></g></g></g><g clip-path="url(#64a8fd4b43)"><path fill="#ffffff" d="M 162.304688 305.851562 L 271.109375 69.125 L 53.503906 69.125 Z M 168.253906 263.085938 L 83.78125 79.292969 L 252.730469 79.292969 Z M 168.253906 263.085938 " fill-opacity="1" fill-rule="nonzero"/></g><g clip-path="url(#a2297527e4)"><path fill="#ffffff" d="M 270.972656 193.242188 C 284.757812 193.242188 296.847656 202.714844 303.683594 216.996094 L 303.683594 209.890625 C 294.503906 196.285156 279.972656 187.511719 263.640625 187.511719 C 235.917969 187.511719 213.425781 212.820312 213.425781 244.042969 C 213.425781 275.265625 235.917969 300.574219 263.640625 300.574219 C 279.972656 300.574219 294.503906 291.800781 303.683594 278.195312 L 303.683594 271.089844 C 296.847656 285.371094 284.757812 294.84375 270.972656 294.84375 C 249.65625 294.84375 232.351562 272.105469 232.351562 244.042969 C 232.351562 215.980469 249.632812 193.242188 270.972656 193.242188 Z M 270.972656 193.242188 " fill-opacity="1" fill-rule="nonzero"/></g></svg>