<svg xmlns="http://www.w3.org/2000/svg" xmlns:xlink="http://www.w3.org/1999/xlink" width="96" zoomAndPan="magnify" viewBox="0 0 72 72" height="96" preserveAspectRatio="xMidYMid meet" version="1.0"><defs><clipPath id="5bf671002f"><path d="M 36 0 C 16.117188 0 0 16.117188 0 36 C 0 55.882812 16.117188 72 36 72 C 55.882812 72 72 55.882812 72 36 C 72 16.117188 55.882812 0 36 0 Z M 36 0 " clip-rule="nonzero"/></clipPath><clipPath id="67319df068"><path d="M 0 0 L 72 0 L 72 72 L 0 72 Z M 0 0 " clip-rule="nonzero"/></clipPath><clipPath id="5bc6830c91"><path d="M 36 0 C 16.117188 0 0 16.117188 0 36 C 0 55.882812 16.117188 72 36 72 C 55.882812 72 72 55.882812 72 36 C 72 16.117188 55.882812 0 36 0 Z M 36 0 " clip-rule="nonzero"/></clipPath><clipPath id="dce3897bea"><rect x="0" width="72" y="0" height="72"/></clipPath><clipPath id="acaeca8446"><path d="M 0.246094 0.0898438 L 38.265625 0.0898438 L 38.265625 41.5625 L 0.246094 41.5625 Z M 0.246094 0.0898438 " clip-rule="nonzero"/></clipPath><clipPath id="59e0ac0ece"><path d="M 29.542969 19.453125 L 49.699219 19.453125 L 49.699219 41.601562 L 29.542969 41.601562 Z M 29.542969 19.453125 " clip-rule="nonzero"/></clipPath><clipPath id="47b9bd4420"><rect x="0" width="50" y="0" height="42"/></clipPath></defs><g clip-path="url(#5bf671002f)"><g transform="matrix(1, 0, 0, 1, 0, -0.000000000000001479)"><g clip-path="url(#dce3897bea)"><g clip-path="url(#67319df068)"><g clip-path="url(#5bc6830c91)"><rect x="-15.84" width="103.68" fill="#1a1a1c" height="103.68" y="-15.84" fill-opacity="1"/></g></g></g></g></g><g transform="matrix(1, 0, 0, 1, 11, 16)"><g clip-path="url(#47b9bd4420)"><g clip-path="url(#acaeca8446)"><path fill="#f5f5f7" d="M 19.246094 41.550781 L 38.265625 0.171875 L 0.226562 0.171875 Z M 20.285156 34.074219 L 5.519531 1.949219 L 35.050781 1.949219 Z M 20.285156 34.074219 " fill-opacity="1" fill-rule="nonzero"/></g><g clip-path="url(#59e0ac0ece)"><path fill="#f5f5f7" d="M 47.347656 35.078125 C 45.878906 37.238281 43.40625 38.65625 40.605469 38.65625 C 36.113281 38.65625 32.457031 35 32.457031 30.507812 C 32.457031 26.011719 36.113281 22.355469 40.605469 22.355469 C 43.414062 22.355469 45.890625 23.785156 47.359375 25.949219 L 49.761719 24.320312 C 47.769531 21.386719 44.410156 19.453125 40.605469 19.453125 C 34.511719 19.453125 29.550781 24.414062 29.550781 30.507812 C 29.550781 36.601562 34.511719 41.558594 40.605469 41.558594 C 44.40625 41.558594 47.765625 39.632812 49.753906 36.703125 Z M 47.347656 35.078125 " fill-opacity="1" fill-rule="nonzero"/></g></g></g></svg>